<?xml version="1.0"?>
<svg xmlns="http://www.w3.org/2000/svg" xmlns:xlink="http://www.w3.org/1999/xlink" xmlns:svgjs="http://svgjs.com/svgjs" version="1.1" width="512" height="512" x="0" y="0" viewBox="0 0 512.061 512.061" style="enable-background:new 0 0 512 512" xml:space="preserve" class=""><g><g xmlns="http://www.w3.org/2000/svg"><path d="m123.105 94.367c-1.903-19.024-15.011-34.71-33.441-39.977l-81.516-23.004-8.148 28.872 81.469 22.991c6.488 1.854 11.114 7.39 11.785 14.098l27.881 279.815.022-.002c1.476 24.242 21.658 43.505 46.265 43.505h16.219c-1.665 4.695-2.58 9.752-2.58 15.01 0 24.813 20.187 45 45 45s45-20.187 45-45c0-5.258-.915-10.305-2.58-15.01h95.161c-1.665 4.705-2.58 9.752-2.58 15.01 0 24.813 20.187 45 45 45s45-20.187 45-45-20.187-45-45-45h-238.64c-9.021 0-16.361-7.339-16.361-16.361 0-8.518 6.396-15.522 14.875-16.293l273.962-24.815c24.037-2.185 42.164-22.034 42.164-46.17v-136.361h30v-30h-386.336zm117.956 341.308c0 8.271-6.729 15-15 15s-15-6.729-15-15 6.729-15 15-15 15 6.729 15 15zm180 0c0 8.271-6.729 15-15 15s-15-6.729-15-15 6.729-15 15-15 15 6.729 15 15zm-257.836-107.531c-5.87.534-11.383 2.127-16.37 4.572l-9.171-92.041h43.377v85.853zm137.836-117.469v-60h60v60zm60 30v69.549l-60 5.435v-74.984zm-90-30h-60v-60h60zm0 30v77.701l-60 5.435v-83.136zm166.126 62.654-46.125 4.178v-66.832h61v46.361c-.001 8.518-6.397 15.523-14.875 16.293zm14.874-92.654h-61v-60h61zm-271-60v60h-46.367l-5.979-60z" fill="#1f2040" data-original="#000000" style="" class=""/></g></g></svg>
